# xmcd
#
# Track frame offsets: 
#        150
#        18685
#        43972
#        64160
#        99090
#        118227
#        144400
#        162987
#        185505
#        200182
#
# Disc length: 3155 seconds
#
# Revision: 5
# Processed by: cddbd v1.5.2PL0 Copyright (c) Steve Scherf et al.
# Submitted via: ExactAudioCopy v1.0b3
#
DISCID=950c510a
DTITLE=Terry Evans and Ry Cooder - Puttin' It Down
DYEAR=1995
DGENRE=Blues
TTITLE0=Money In Your Pocket
TTITLE1=Too Many Ups and Downs
TTITLE2=Walking in the Same Tracks
TTITLE3=Down In Mississippi
TTITLE4=In This Day and Time
TTITLE5=Rooftop TomCat
TTITLE6=A Lover Like You
TTITLE7=One Sided Love Affair
TTITLE8=Nasty Doll
TTITLE9=Blues No More
EXTD=YEAR: 1995
EXTT0=
EXTT1=
EXTT2=
EXTT3=
EXTT4=
EXTT5=
EXTT6=
EXTT7=
EXTT8=
EXTT9=
PLAYORDER=
